<?xml version="1.0" standalone="no"?>
<!DOCTYPE svg PUBLIC "-//W3C//DTD SVG 20010904//EN"
 "http://www.w3.org/TR/2001/REC-SVG-20010904/DTD/svg10.dtd">
<svg version="1.0" xmlns="http://www.w3.org/2000/svg"
 width="1000.000000pt" height="1000.000000pt" viewBox="0 0 1000.000000 1000.000000"
 preserveAspectRatio="xMidYMid meet">
<metadata>
Created by potrace 1.15, written by Peter Selinger 2001-2017
</metadata>
<g transform="translate(0.000000,1000.000000) scale(0.100000,-0.100000)"
fill="#000000" stroke="none">
<path d="M175 9983 c-52 -27 -112 -81 -144 -129 l-31 -47 0 -4802 0 -4802 31
-47 c35 -53 94 -103 156 -135 l42 -21 4591 0 4591 0 51 26 c62 31 139 106 169
165 46 92 49 119 49 561 l0 418 -25 -10 c-101 -39 -524 -137 -747 -175 l-38
-6 0 -94 0 -95 -4050 0 -4050 0 0 4215 0 4215 4050 0 4050 0 0 -80 0 -79 33
-5 c17 -3 115 -17 217 -31 169 -24 506 -86 544 -101 14 -6 16 32 16 372 0 401
-3 432 -49 523 -29 55 -106 133 -159 160 l-41 21 -4613 0 c-4195 -1 -4616 -2
-4643 -17z"/>
<path d="M7380 8939 c-1339 -83 -2425 -549 -3230 -1385 -408 -424 -714 -949
-873 -1499 -116 -399 -161 -740 -161 -1215 -1 -496 53 -876 180 -1271 227
-705 668 -1298 1299 -1746 145 -103 297 -193 488 -288 737 -368 1622 -526
2727 -487 896 32 1501 137 2118 367 l72 27 0 794 0 793 -107 -51 c-600 -281
-1204 -420 -1903 -435 -619 -14 -1075 73 -1515 287 -393 192 -731 500 -942
858 -234 397 -345 907 -313 1438 13 218 34 356 80 540 102 402 291 736 580
1024 509 508 1224 770 2106 770 706 0 1398 -150 1936 -421 l78 -39 -2 836 -3
837 -112 33 c-421 123 -960 205 -1548 234 -235 11 -766 11 -955 -1z"/>
<path d="M8870 5010 c0 -1837 2 -2210 13 -2210 8 0 92 20 188 44 186 48 354
101 512 161 l97 38 0 1973 0 1973 -77 29 c-91 35 -296 101 -403 131 -77 21
-302 71 -320 71 -7 0 -10 -719 -10 -2210z"/>
<path d="M6180 4940 l0 -1070 245 0 245 0 0 430 0 430 435 0 435 0 0 -430 0
-430 250 0 250 0 0 1070 0 1070 -250 0 -250 0 0 -425 0 -425 -435 0 -435 0 0
425 0 425 -245 0 -245 0 0 -1070z"/>
</g>
</svg>
